# xmcd CD database file
#
# Track frame offsets:
#	150
#	18125
#	39622
#	65665
#	80632
#	103527
#	122095
#	142532
#	157790
#	175752
#	200105
#	224547
#
# Disc length: 3222 seconds
#
# Revision: 1
# Processed by: cddbd v1.5.2PL0 Copyright (c) Steve Scherf et al.
# Submitted via: CDex 1.51
#
DISCID=9e0c940c
DTITLE=Joyce Mere - Pack Up My Dreams and Go Home
DYEAR=1999
DGENRE=Country
TTITLE0=Love's Gonna Take You Down
TTITLE1=Pack Up My Dreams And Go Home
TTITLE2=Helping Hand
TTITLE3=She'll Get By
TTITLE4=Take Me Back To The Country
TTITLE5=She Was A Stranger
TTITLE6=Honky Tonk Bar
TTITLE7=Friend
TTITLE8=Gonna Steal You Away
TTITLE9=Another Shot Of Yesterday
TTITLE10=Love Like A River
TTITLE11=Are You For Real
EXTD=YEAR: 1999
EXTT0=
EXTT1=
EXTT2=
EXTT3=
EXTT4=
EXTT5=
EXTT6=
EXTT7=
EXTT8=
EXTT9=
EXTT10=
EXTT11=
PLAYORDER=
